<?xml version="1.0" ?><svg data-name="Layer 1" id="Layer_1" viewBox="0 0 128 128" xmlns="http://www.w3.org/2000/svg"><title/><path d="M104,0H24A24.07,24.07,0,0,0,0,24v80a24.07,24.07,0,0,0,24,24h80a24.07,24.07,0,0,0,24-24V24A24.07,24.07,0,0,0,104,0ZM91.83,51.72q0,.92,0,1.86c0,19-14.45,40.86-40.86,40.86A40.65,40.65,0,0,1,29,88a29.15,29.15,0,0,0,3.43.2A28.81,28.81,0,0,0,50.26,82a14.38,14.38,0,0,1-13.42-10,14.39,14.39,0,0,0,6.49-.25A14.37,14.37,0,0,1,31.81,57.74c0-.06,0-.12,0-.18a14.3,14.3,0,0,0,6.5,1.8,14.38,14.38,0,0,1-4.44-19.17,40.77,40.77,0,0,0,29.6,15,14.37,14.37,0,0,1,24.47-13.1,28.75,28.75,0,0,0,9.12-3.48,14.4,14.4,0,0,1-6.31,7.95A28.71,28.71,0,0,0,99,44.29,29.18,29.18,0,0,1,91.83,51.72Z"/></svg>